<svg xmlns="http://www.w3.org/2000/svg" viewBox="0 0 1024 1024" role="img" aria-labelledby="title desc">
  <title id="title">Postmaster icon</title>
  <desc id="desc">Envelope with a moderator shield and checkmark.</desc>
  <rect width="1024" height="1024" rx="224" fill="#10312b"/>
  <circle cx="512" cy="512" r="388" fill="#f7f3e8"/>
  <path d="M223 326c0-38 31-69 69-69h440c38 0 69 31 69 69v276c0 38-31 69-69 69H292c-38 0-69-31-69-69V326Z" fill="#ffffff"/>
  <path d="M251 335 512 515l261-180v51L526 556a25 25 0 0 1-28 0L251 386v-51Z" fill="#2f7c6d"/>
  <path d="M251 597 428 464l42 29-171 128h426L554 493l42-29 177 133v5c0 23-18 41-41 41H292c-23 0-41-18-41-41v-5Z" fill="#d9ece6"/>
  <path d="M512 224 279 385v-59c0-7 6-13 13-13h440c7 0 13 6 13 13v59L512 224Z" fill="#e9f5f1"/>
  <path d="M512 164 218 368a28 28 0 0 0-12 23v211c0 47 39 86 86 86h440c47 0 86-39 86-86V391c0-9-4-18-12-23L512 164Zm0 61 261 180v197c0 23-18 41-41 41H292c-23 0-41-18-41-41V405L512 225Z" fill="#10312b" fill-rule="evenodd"/>
  <path d="M610 536c0-16 10-31 25-37l123-50c15-6 32-6 47 0l123 50c15 6 25 21 25 37v90c0 106-69 199-170 230a50 50 0 0 1-29 0c-101-31-170-124-170-230v-90Z" fill="#0f5f73"/>
  <path d="M646 557 769 507l123 50v69c0 88-57 165-140 191-83-26-140-103-140-191v-69Z" fill="#1a8aa3"/>
  <path d="m718 650 38 38 99-112 44 39-137 155-86-86 42-34Z" fill="#ffffff"/>
  <path d="M610 536c0-16 10-31 25-37l123-50c15-6 32-6 47 0l123 50c15 6 25 21 25 37v90c0 106-69 199-170 230a50 50 0 0 1-29 0c-101-31-170-124-170-230v-90Zm159-29-123 50v69c0 88 57 165 140 191 83-26 140-103 140-191v-69l-123-50a45 45 0 0 0-34 0Z" fill="#10312b" fill-rule="evenodd"/>
</svg>
